<svg width="52" height="52" viewBox="0 0 52 52" fill="none" xmlns="http://www.w3.org/2000/svg">
<path d="M9.47916 45.5L6.44583 42.4667L28.6542 20.2583C28.0042 18.7417 27.9139 17.0264 28.3833 15.1125C28.8528 13.1986 29.8819 11.4833 31.4708 9.96667C33.3847 8.05278 35.5153 6.93333 37.8625 6.60833C40.2097 6.28333 42.1236 6.86111 43.6042 8.34167C45.0847 9.82222 45.6625 11.7361 45.3375 14.0833C45.0125 16.4306 43.8931 18.5611 41.9792 20.475C40.4625 22.0639 38.7472 23.0931 36.8333 23.5625C34.9194 24.0319 33.2042 23.9417 31.6875 23.2917L28.9792 26L45.4458 42.4667L42.4125 45.5L25.9458 29.1417L9.47916 45.5ZM15.8708 26.975L9.37083 20.475C7.42083 18.525 6.44583 16.1958 6.44583 13.4875C6.44583 10.7792 7.42083 8.45 9.37083 6.5L22.8042 20.0417L15.8708 26.975Z" fill="black"/>
</svg>
